<svg width="203" height="28" viewBox="0 0 203 42" fill="none" xmlns="http://www.w3.org/2000/svg">
<path d="M11.86 7.56C13.396 7.56 14.764 7.86 15.964 8.46C17.188 9.06 18.148 9.984 18.844 11.232C19.54 12.456 19.888 14.04 19.888 15.984V27H15.388V16.56C15.388 14.856 14.98 13.584 14.164 12.744C13.372 11.904 12.256 11.484 10.816 11.484C9.76 11.484 8.824 11.7 8.008 12.132C7.192 12.564 6.556 13.212 6.1 14.076C5.668 14.916 5.452 15.984 5.452 17.28V27H0.952V7.776H5.236V12.96L4.48 11.376C5.152 10.152 6.124 9.216 7.396 8.568C8.692 7.896 10.18 7.56 11.86 7.56ZM34.6677 27.252C32.5317 27.252 30.6597 26.832 29.0517 25.992C27.4677 25.128 26.2317 23.952 25.3437 22.464C24.4797 20.976 24.0477 19.284 24.0477 17.388C24.0477 15.468 24.4677 13.776 25.3077 12.312C26.1717 10.824 27.3477 9.66 28.8357 8.82C30.3477 7.98 32.0637 7.56 33.9837 7.56C35.8557 7.56 37.5237 7.968 38.9877 8.784C40.4517 9.6 41.6037 10.752 42.4437 12.24C43.2837 13.728 43.7037 15.48 43.7037 17.496C43.7037 17.688 43.6917 17.904 43.6677 18.144C43.6677 18.384 43.6557 18.612 43.6317 18.828H27.6117V15.84H41.2557L39.4917 16.776C39.5157 15.672 39.2877 14.7 38.8077 13.86C38.3277 13.02 37.6677 12.36 36.8277 11.88C36.0117 11.4 35.0637 11.16 33.9837 11.16C32.8797 11.16 31.9077 11.4 31.0677 11.88C30.2517 12.36 29.6037 13.032 29.1237 13.896C28.6677 14.736 28.4397 15.732 28.4397 16.884V17.604C28.4397 18.756 28.7037 19.776 29.2317 20.664C29.7597 21.552 30.5037 22.236 31.4637 22.716C32.4237 23.196 33.5277 23.436 34.7757 23.436C35.8557 23.436 36.8277 23.268 37.6917 22.932C38.5557 22.596 39.3237 22.068 39.9957 21.348L42.4077 24.12C41.5437 25.128 40.4517 25.908 39.1317 26.46C37.8357 26.988 36.3477 27.252 34.6677 27.252ZM56.6662 27.252C54.6982 27.252 52.9462 26.832 51.4102 25.992C49.8742 25.128 48.6622 23.952 47.7742 22.464C46.8862 20.976 46.4422 19.284 46.4422 17.388C46.4422 15.468 46.8862 13.776 47.7742 12.312C48.6622 10.824 49.8742 9.66 51.4102 8.82C52.9462 7.98 54.6982 7.56 56.6662 7.56C58.6582 7.56 60.4222 7.98 61.9582 8.82C63.5182 9.66 64.7302 10.812 65.5942 12.276C66.4822 13.74 66.9262 15.444 66.9262 17.388C66.9262 19.284 66.4822 20.976 65.5942 22.464C64.7302 23.952 63.5182 25.128 61.9582 25.992C60.4222 26.832 58.6582 27.252 56.6662 27.252ZM56.6662 23.4C57.7702 23.4 58.7542 23.16 59.6182 22.68C60.4822 22.2 61.1542 21.504 61.6342 20.592C62.1382 19.68 62.3902 18.612 62.3902 17.388C62.3902 16.14 62.1382 15.072 61.6342 14.184C61.1542 13.272 60.4822 12.576 59.6182 12.096C58.7542 11.616 57.7822 11.376 56.7022 11.376C55.5982 11.376 54.6142 11.616 53.7502 12.096C52.9102 12.576 52.2382 13.272 51.7342 14.184C51.2302 15.072 50.9782 16.14 50.9782 17.388C50.9782 18.612 51.2302 19.68 51.7342 20.592C52.2382 21.504 52.9102 22.2 53.7502 22.68C54.6142 23.16 55.5862 23.4 56.6662 23.4ZM183.777 24.264V18.144L199.833 12.636V16.164L183.777 10.656V4.536L202.137 11.196V17.604L183.777 24.264Z" fill="#3D89FB"/>
<path d="M80.0493 27.252C78.0333 27.252 76.2333 26.832 74.6493 25.992C73.0893 25.128 71.8653 23.952 70.9773 22.464C70.0893 20.976 69.6453 19.284 69.6453 17.388C69.6453 15.468 70.0893 13.776 70.9773 12.312C71.8653 10.824 73.0893 9.66 74.6493 8.82C76.2333 7.98 78.0333 7.56 80.0493 7.56C81.9213 7.56 83.5653 7.944 84.9813 8.712C86.4213 9.456 87.5133 10.56 88.2573 12.024L84.8013 14.04C84.2253 13.128 83.5173 12.456 82.6773 12.024C81.8613 11.592 80.9733 11.376 80.0133 11.376C78.9093 11.376 77.9133 11.616 77.0253 12.096C76.1373 12.576 75.4413 13.272 74.9373 14.184C74.4333 15.072 74.1813 16.14 74.1813 17.388C74.1813 18.636 74.4333 19.716 74.9373 20.628C75.4413 21.516 76.1373 22.2 77.0253 22.68C77.9133 23.16 78.9093 23.4 80.0133 23.4C80.9733 23.4 81.8613 23.184 82.6773 22.752C83.5173 22.32 84.2253 21.648 84.8013 20.736L88.2573 22.752C87.5133 24.192 86.4213 25.308 84.9813 26.1C83.5653 26.868 81.9213 27.252 80.0493 27.252ZM91.9715 27V0.287998H96.4715V27H91.9715ZM111.018 27.252C109.05 27.252 107.298 26.832 105.762 25.992C104.226 25.128 103.014 23.952 102.126 22.464C101.238 20.976 100.794 19.284 100.794 17.388C100.794 15.468 101.238 13.776 102.126 12.312C103.014 10.824 104.226 9.66 105.762 8.82C107.298 7.98 109.05 7.56 111.018 7.56C113.01 7.56 114.774 7.98 116.31 8.82C117.87 9.66 119.082 10.812 119.946 12.276C120.834 13.74 121.278 15.444 121.278 17.388C121.278 19.284 120.834 20.976 119.946 22.464C119.082 23.952 117.87 25.128 116.31 25.992C114.774 26.832 113.01 27.252 111.018 27.252ZM111.018 23.4C112.122 23.4 113.106 23.16 113.97 22.68C114.834 22.2 115.506 21.504 115.986 20.592C116.49 19.68 116.742 18.612 116.742 17.388C116.742 16.14 116.49 15.072 115.986 14.184C115.506 13.272 114.834 12.576 113.97 12.096C113.106 11.616 112.134 11.376 111.054 11.376C109.95 11.376 108.966 11.616 108.102 12.096C107.262 12.576 106.59 13.272 106.086 14.184C105.582 15.072 105.33 16.14 105.33 17.388C105.33 18.612 105.582 19.68 106.086 20.592C106.59 21.504 107.262 22.2 108.102 22.68C108.966 23.16 109.938 23.4 111.018 23.4ZM133.717 27.252C132.085 27.252 130.645 26.952 129.397 26.352C128.149 25.728 127.177 24.792 126.481 23.544C125.785 22.272 125.437 20.676 125.437 18.756V7.776H129.937V18.144C129.937 19.872 130.321 21.168 131.089 22.032C131.881 22.872 132.997 23.292 134.437 23.292C135.493 23.292 136.405 23.076 137.173 22.644C137.965 22.212 138.577 21.564 139.009 20.7C139.465 19.836 139.693 18.768 139.693 17.496V7.776H144.193V27H139.909V21.816L140.665 23.4C140.017 24.648 139.069 25.608 137.821 26.28C136.573 26.928 135.205 27.252 133.717 27.252ZM158.221 27.252C156.373 27.252 154.705 26.844 153.217 26.028C151.753 25.188 150.601 24.036 149.761 22.572C148.921 21.108 148.501 19.38 148.501 17.388C148.501 15.396 148.921 13.668 149.761 12.204C150.601 10.74 151.753 9.6 153.217 8.784C154.705 7.968 156.373 7.56 158.221 7.56C159.829 7.56 161.269 7.92 162.541 8.64C163.813 9.336 164.821 10.404 165.565 11.844C166.309 13.284 166.681 15.132 166.681 17.388C166.681 19.62 166.321 21.468 165.601 22.932C164.881 24.372 163.885 25.452 162.613 26.172C161.341 26.892 159.877 27.252 158.221 27.252ZM158.761 23.4C159.841 23.4 160.801 23.16 161.641 22.68C162.505 22.2 163.189 21.504 163.693 20.592C164.221 19.68 164.485 18.612 164.485 17.388C164.485 16.14 164.221 15.072 163.693 14.184C163.189 13.272 162.505 12.576 161.641 12.096C160.801 11.616 159.841 11.376 158.761 11.376C157.681 11.376 156.709 11.616 155.845 12.096C155.005 12.576 154.321 13.272 153.793 14.184C153.289 15.072 153.037 16.14 153.037 17.388C153.037 18.612 153.289 19.68 153.793 20.592C154.321 21.504 155.005 22.2 155.845 22.68C156.709 23.16 157.681 23.4 158.761 23.4ZM164.593 27V22.464L164.773 17.352L164.413 12.24V0.287998H168.877V27H164.593Z" fill="#333333FF"/>
</svg>
